<mxfile host="Electron" modified="2023-12-09T02:07:48.591Z" agent="Mozilla/5.0 (Macintosh; Intel Mac OS X 10_15_7) AppleWebKit/537.36 (KHTML, like Gecko) draw.io/22.1.2 Chrome/114.0.5735.289 Electron/25.9.4 Safari/537.36" etag="_BR1wg4XcYuq8-dul-in" version="22.1.2" type="device">
  <diagram name="Page-1" id="VHErnbCVma85eQM2y0zj">
    <mxGraphModel dx="1434" dy="769" grid="1" gridSize="10" guides="1" tooltips="1" connect="1" arrows="1" fold="1" page="1" pageScale="1" pageWidth="1100" pageHeight="850" math="0" shadow="0">
      <root>
        <mxCell id="0" />
        <mxCell id="1" parent="0" />
        <mxCell id="zQZSDzsNLR1eiH3jz9S8-21" value="" style="group" parent="1" vertex="1" connectable="0">
          <mxGeometry x="460" y="40" width="430" height="410" as="geometry" />
        </mxCell>
        <mxCell id="zQZSDzsNLR1eiH3jz9S8-8" value="" style="rounded=1;whiteSpace=wrap;html=1;" parent="zQZSDzsNLR1eiH3jz9S8-21" vertex="1">
          <mxGeometry y="30" width="430" height="380" as="geometry" />
        </mxCell>
        <mxCell id="zQZSDzsNLR1eiH3jz9S8-2" value="K8s Node / Host" style="text;html=1;align=center;verticalAlign=middle;resizable=0;points=[];autosize=1;strokeColor=none;fillColor=none;fontSize=16;" parent="zQZSDzsNLR1eiH3jz9S8-21" vertex="1">
          <mxGeometry x="145" width="140" height="30" as="geometry" />
        </mxCell>
        <mxCell id="zQZSDzsNLR1eiH3jz9S8-4" value="metrics:&lt;br&gt;&amp;nbsp; receivers: kubeletstats / hostmetrics&lt;br&gt;&amp;nbsp; processors: metricsasattributes&lt;br&gt;traces/db-only:&lt;br&gt;&amp;nbsp; receivers: otlp&lt;br&gt;&amp;nbsp; processors: metricsasattributes, filter/db-only&lt;br&gt;&amp;nbsp; exporters: otlp/db-collector&lt;br&gt;traces/kafka-only:&lt;br&gt;&amp;nbsp; receiver: otlp&lt;br&gt;&amp;nbsp; processors: metricsattributes, filter/kafka-only&lt;br&gt;&amp;nbsp; exporters: otlp/kafka-collector&lt;br&gt;traces/all-the-rest:&lt;br&gt;&amp;nbsp; receiver: otlp&lt;br&gt;&amp;nbsp; processors: metricsattributes, filter/all-the-rest&lt;br&gt;&amp;nbsp; exporters: otlp/honeycomb" style="rounded=0;whiteSpace=wrap;html=1;fillColor=#60a917;fontColor=#ffffff;strokeColor=#2D7600;align=left;fontFamily=Courier New;" parent="zQZSDzsNLR1eiH3jz9S8-21" vertex="1">
          <mxGeometry x="20" y="130" width="390" height="240" as="geometry" />
        </mxCell>
        <mxCell id="zQZSDzsNLR1eiH3jz9S8-5" value="Service" style="ellipse;whiteSpace=wrap;html=1;aspect=fixed;" parent="zQZSDzsNLR1eiH3jz9S8-21" vertex="1">
          <mxGeometry x="20" y="50" width="70" height="70" as="geometry" />
        </mxCell>
        <mxCell id="zQZSDzsNLR1eiH3jz9S8-7" value="Service" style="ellipse;whiteSpace=wrap;html=1;aspect=fixed;" parent="zQZSDzsNLR1eiH3jz9S8-21" vertex="1">
          <mxGeometry x="100" y="50" width="70" height="70" as="geometry" />
        </mxCell>
        <mxCell id="zQZSDzsNLR1eiH3jz9S8-10" value="Service" style="ellipse;whiteSpace=wrap;html=1;aspect=fixed;" parent="zQZSDzsNLR1eiH3jz9S8-21" vertex="1">
          <mxGeometry x="180" y="50" width="70" height="70" as="geometry" />
        </mxCell>
        <mxCell id="zQZSDzsNLR1eiH3jz9S8-14" value="Service" style="ellipse;whiteSpace=wrap;html=1;aspect=fixed;" parent="zQZSDzsNLR1eiH3jz9S8-21" vertex="1">
          <mxGeometry x="260" y="50" width="70" height="70" as="geometry" />
        </mxCell>
        <mxCell id="zQZSDzsNLR1eiH3jz9S8-18" value="Service" style="ellipse;whiteSpace=wrap;html=1;aspect=fixed;" parent="zQZSDzsNLR1eiH3jz9S8-21" vertex="1">
          <mxGeometry x="340" y="50" width="70" height="70" as="geometry" />
        </mxCell>
        <mxCell id="zQZSDzsNLR1eiH3jz9S8-26" value="" style="group" parent="1" vertex="1" connectable="0">
          <mxGeometry x="40" y="80" width="300" height="435" as="geometry" />
        </mxCell>
        <mxCell id="zQZSDzsNLR1eiH3jz9S8-22" value="" style="group" parent="zQZSDzsNLR1eiH3jz9S8-26" vertex="1" connectable="0">
          <mxGeometry y="240" width="300" height="195" as="geometry" />
        </mxCell>
        <mxCell id="zQZSDzsNLR1eiH3jz9S8-19" value="" style="rounded=1;whiteSpace=wrap;html=1;" parent="zQZSDzsNLR1eiH3jz9S8-22" vertex="1">
          <mxGeometry y="30" width="300" height="165" as="geometry" />
        </mxCell>
        <mxCell id="zQZSDzsNLR1eiH3jz9S8-17" value="metrics:&lt;br&gt;&amp;nbsp; receivers: mysqlreceiver&lt;br&gt;&amp;nbsp; processors: metricsasattributes&lt;br&gt;traces:&lt;br&gt;&amp;nbsp; receivers: otlp&lt;br&gt;&amp;nbsp; processors: metricsasattributes&lt;br&gt;&amp;nbsp; exporters: otlp/honeycomb" style="rounded=0;whiteSpace=wrap;html=1;align=left;fontFamily=Courier New;fillColor=#0050ef;fontColor=#ffffff;strokeColor=#001DBC;" parent="zQZSDzsNLR1eiH3jz9S8-22" vertex="1">
          <mxGeometry x="17.5" y="45" width="262.5" height="130" as="geometry" />
        </mxCell>
        <mxCell id="zQZSDzsNLR1eiH3jz9S8-20" value="Collector container / host" style="text;html=1;align=center;verticalAlign=middle;resizable=0;points=[];autosize=1;strokeColor=none;fillColor=none;fontSize=16;" parent="zQZSDzsNLR1eiH3jz9S8-22" vertex="1">
          <mxGeometry x="48.75" width="200" height="30" as="geometry" />
        </mxCell>
        <mxCell id="zQZSDzsNLR1eiH3jz9S8-24" style="edgeStyle=orthogonalEdgeStyle;rounded=0;orthogonalLoop=1;jettySize=auto;html=1;exitX=0.5;exitY=1;exitDx=0;exitDy=0;exitPerimeter=0;strokeWidth=2;" parent="zQZSDzsNLR1eiH3jz9S8-26" source="zQZSDzsNLR1eiH3jz9S8-15" target="zQZSDzsNLR1eiH3jz9S8-20" edge="1">
          <mxGeometry relative="1" as="geometry" />
        </mxCell>
        <mxCell id="zQZSDzsNLR1eiH3jz9S8-15" value="MySQL / Postgres / etc" style="shape=cylinder3;whiteSpace=wrap;html=1;boundedLbl=1;backgroundOutline=1;size=15;fontSize=16;" parent="zQZSDzsNLR1eiH3jz9S8-26" vertex="1">
          <mxGeometry x="53.75" width="190" height="200" as="geometry" />
        </mxCell>
        <mxCell id="zQZSDzsNLR1eiH3jz9S8-34" style="edgeStyle=orthogonalEdgeStyle;rounded=0;orthogonalLoop=1;jettySize=auto;html=1;exitX=1;exitY=0.5;exitDx=0;exitDy=0;entryX=0;entryY=0.5;entryDx=0;entryDy=0;strokeWidth=2;fontSize=14;" parent="1" source="zQZSDzsNLR1eiH3jz9S8-8" target="zQZSDzsNLR1eiH3jz9S8-29" edge="1">
          <mxGeometry relative="1" as="geometry" />
        </mxCell>
        <mxCell id="LENL8DU7d0kflZtVyGpC-5" value="otlp/kafka-collector" style="edgeLabel;html=1;align=center;verticalAlign=middle;resizable=0;points=[];fontSize=14;" parent="zQZSDzsNLR1eiH3jz9S8-34" vertex="1" connectable="0">
          <mxGeometry x="0.0803" y="-2" relative="1" as="geometry">
            <mxPoint as="offset" />
          </mxGeometry>
        </mxCell>
        <mxCell id="zQZSDzsNLR1eiH3jz9S8-37" value="" style="group" parent="1" vertex="1" connectable="0">
          <mxGeometry x="1010" y="320" width="555" height="195" as="geometry" />
        </mxCell>
        <mxCell id="zQZSDzsNLR1eiH3jz9S8-28" value="" style="group" parent="zQZSDzsNLR1eiH3jz9S8-37" vertex="1" connectable="0">
          <mxGeometry width="300" height="195" as="geometry" />
        </mxCell>
        <mxCell id="zQZSDzsNLR1eiH3jz9S8-29" value="" style="rounded=1;whiteSpace=wrap;html=1;" parent="zQZSDzsNLR1eiH3jz9S8-28" vertex="1">
          <mxGeometry y="30" width="300" height="165" as="geometry" />
        </mxCell>
        <mxCell id="zQZSDzsNLR1eiH3jz9S8-30" value="metrics:&lt;br&gt;&amp;nbsp; receivers: kafkareceiver&lt;br&gt;&amp;nbsp; processors: metricsasattributes&lt;br&gt;traces:&lt;br&gt;&amp;nbsp; receivers: otlp&lt;br&gt;&amp;nbsp; processors: metricsasattributes&lt;br&gt;&amp;nbsp; exporters: otlp/honeycomb" style="rounded=0;whiteSpace=wrap;html=1;align=left;fontFamily=Courier New;fillColor=#0050ef;fontColor=#ffffff;strokeColor=#001DBC;" parent="zQZSDzsNLR1eiH3jz9S8-28" vertex="1">
          <mxGeometry x="17.5" y="45" width="262.5" height="130" as="geometry" />
        </mxCell>
        <mxCell id="zQZSDzsNLR1eiH3jz9S8-31" value="Collector container / host" style="text;html=1;align=center;verticalAlign=middle;resizable=0;points=[];autosize=1;strokeColor=none;fillColor=none;fontSize=16;" parent="zQZSDzsNLR1eiH3jz9S8-28" vertex="1">
          <mxGeometry x="48.75" width="200" height="30" as="geometry" />
        </mxCell>
        <mxCell id="zQZSDzsNLR1eiH3jz9S8-32" style="edgeStyle=orthogonalEdgeStyle;rounded=0;orthogonalLoop=1;jettySize=auto;html=1;exitX=0.5;exitY=1;exitDx=0;exitDy=0;exitPerimeter=0;strokeWidth=2;entryX=1;entryY=0.5;entryDx=0;entryDy=0;" parent="zQZSDzsNLR1eiH3jz9S8-37" source="zQZSDzsNLR1eiH3jz9S8-33" target="zQZSDzsNLR1eiH3jz9S8-29" edge="1">
          <mxGeometry relative="1" as="geometry" />
        </mxCell>
        <mxCell id="zQZSDzsNLR1eiH3jz9S8-36" value="" style="group" parent="zQZSDzsNLR1eiH3jz9S8-37" vertex="1" connectable="0">
          <mxGeometry x="355" y="57.5" width="200" height="110" as="geometry" />
        </mxCell>
        <mxCell id="zQZSDzsNLR1eiH3jz9S8-33" value="" style="shape=cylinder3;whiteSpace=wrap;html=1;boundedLbl=1;backgroundOutline=1;size=15;fontSize=16;rotation=90;" parent="zQZSDzsNLR1eiH3jz9S8-36" vertex="1">
          <mxGeometry x="45" y="-45" width="110" height="200" as="geometry" />
        </mxCell>
        <mxCell id="zQZSDzsNLR1eiH3jz9S8-35" value="Kafka" style="text;html=1;align=center;verticalAlign=middle;resizable=0;points=[];autosize=1;strokeColor=none;fillColor=none;fontSize=16;" parent="zQZSDzsNLR1eiH3jz9S8-36" vertex="1">
          <mxGeometry x="55" y="40" width="60" height="30" as="geometry" />
        </mxCell>
        <mxCell id="zQZSDzsNLR1eiH3jz9S8-38" value="Honeycomb" style="ellipse;shape=cloud;whiteSpace=wrap;html=1;fontSize=24;" parent="1" vertex="1">
          <mxGeometry x="370" y="680" width="760" height="270" as="geometry" />
        </mxCell>
        <mxCell id="LENL8DU7d0kflZtVyGpC-1" style="edgeStyle=orthogonalEdgeStyle;rounded=0;orthogonalLoop=1;jettySize=auto;html=1;exitX=0;exitY=0.5;exitDx=0;exitDy=0;entryX=0.967;entryY=0.485;entryDx=0;entryDy=0;entryPerimeter=0;strokeWidth=2;" parent="1" source="zQZSDzsNLR1eiH3jz9S8-8" target="zQZSDzsNLR1eiH3jz9S8-19" edge="1">
          <mxGeometry relative="1" as="geometry" />
        </mxCell>
        <mxCell id="LENL8DU7d0kflZtVyGpC-6" value="otlp/db-collector" style="edgeLabel;html=1;align=center;verticalAlign=middle;resizable=0;points=[];fontSize=14;" parent="LENL8DU7d0kflZtVyGpC-1" vertex="1" connectable="0">
          <mxGeometry x="-0.0241" y="3" relative="1" as="geometry">
            <mxPoint as="offset" />
          </mxGeometry>
        </mxCell>
        <mxCell id="LENL8DU7d0kflZtVyGpC-2" style="edgeStyle=orthogonalEdgeStyle;rounded=0;orthogonalLoop=1;jettySize=auto;html=1;entryX=0.25;entryY=0.25;entryDx=0;entryDy=0;entryPerimeter=0;exitX=0.75;exitY=1;exitDx=0;exitDy=0;strokeWidth=2;" parent="1" source="zQZSDzsNLR1eiH3jz9S8-19" target="zQZSDzsNLR1eiH3jz9S8-38" edge="1">
          <mxGeometry relative="1" as="geometry">
            <mxPoint x="130" y="650" as="sourcePoint" />
          </mxGeometry>
        </mxCell>
        <mxCell id="LENL8DU7d0kflZtVyGpC-9" value="otlp/honeycomb" style="edgeLabel;html=1;align=center;verticalAlign=middle;resizable=0;points=[];fontSize=14;" parent="LENL8DU7d0kflZtVyGpC-2" vertex="1" connectable="0">
          <mxGeometry x="-0.2133" y="6" relative="1" as="geometry">
            <mxPoint x="1" as="offset" />
          </mxGeometry>
        </mxCell>
        <mxCell id="LENL8DU7d0kflZtVyGpC-3" style="edgeStyle=orthogonalEdgeStyle;rounded=0;orthogonalLoop=1;jettySize=auto;html=1;exitX=0.5;exitY=1;exitDx=0;exitDy=0;entryX=0.4;entryY=0.1;entryDx=0;entryDy=0;entryPerimeter=0;strokeWidth=4;" parent="1" source="zQZSDzsNLR1eiH3jz9S8-8" target="zQZSDzsNLR1eiH3jz9S8-38" edge="1">
          <mxGeometry relative="1" as="geometry" />
        </mxCell>
        <mxCell id="LENL8DU7d0kflZtVyGpC-7" value="otlp/honeycomb" style="edgeLabel;html=1;align=center;verticalAlign=middle;resizable=0;points=[];fontSize=14;" parent="LENL8DU7d0kflZtVyGpC-3" vertex="1" connectable="0">
          <mxGeometry x="-0.0646" y="-1" relative="1" as="geometry">
            <mxPoint y="1" as="offset" />
          </mxGeometry>
        </mxCell>
        <mxCell id="LENL8DU7d0kflZtVyGpC-4" style="edgeStyle=orthogonalEdgeStyle;rounded=0;orthogonalLoop=1;jettySize=auto;html=1;exitX=0.25;exitY=1;exitDx=0;exitDy=0;entryX=0.625;entryY=0.2;entryDx=0;entryDy=0;entryPerimeter=0;strokeWidth=2;" parent="1" source="zQZSDzsNLR1eiH3jz9S8-29" target="zQZSDzsNLR1eiH3jz9S8-38" edge="1">
          <mxGeometry relative="1" as="geometry" />
        </mxCell>
        <mxCell id="LENL8DU7d0kflZtVyGpC-8" value="otlp/honeycomb" style="edgeLabel;html=1;align=center;verticalAlign=middle;resizable=0;points=[];fontSize=14;" parent="LENL8DU7d0kflZtVyGpC-4" vertex="1" connectable="0">
          <mxGeometry x="0.0203" y="2" relative="1" as="geometry">
            <mxPoint x="-1" as="offset" />
          </mxGeometry>
        </mxCell>
      </root>
    </mxGraphModel>
  </diagram>
</mxfile>
